<mxfile host="Electron" modified="2024-07-14T19:15:08.762Z" agent="Mozilla/5.0 (Windows NT 10.0; Win64; x64) AppleWebKit/537.36 (KHTML, like Gecko) draw.io/24.2.5 Chrome/120.0.6099.109 Electron/28.1.0 Safari/537.36" etag="qZ0bqem-PpHwPSRyn0wu" version="24.2.5" type="device">
  <diagram name="Page-1" id="ir2nP43RishBPrWWHekZ">
    <mxGraphModel dx="2924" dy="1196" grid="1" gridSize="10" guides="1" tooltips="1" connect="1" arrows="1" fold="1" page="1" pageScale="1" pageWidth="850" pageHeight="1100" math="0" shadow="0">
      <root>
        <mxCell id="0" />
        <mxCell id="1" parent="0" />
        <mxCell id="dB0mmWVFSh1fFRoZVbam-2" value="" style="rounded=0;whiteSpace=wrap;html=1;fontStyle=1;fillColor=none;strokeWidth=2;dashed=1;" vertex="1" parent="1">
          <mxGeometry x="-370" y="20" width="1170" height="756" as="geometry" />
        </mxCell>
        <mxCell id="dB0mmWVFSh1fFRoZVbam-3" value="" style="rounded=0;whiteSpace=wrap;html=1;fontStyle=1;fillColor=none;strokeWidth=2;dashed=1;" vertex="1" parent="1">
          <mxGeometry x="-260" y="100" width="580" height="510" as="geometry" />
        </mxCell>
        <mxCell id="dB0mmWVFSh1fFRoZVbam-5" value="Clientes" style="rounded=0;whiteSpace=wrap;html=1;" vertex="1" parent="1">
          <mxGeometry x="140" y="240" width="120" height="60" as="geometry" />
        </mxCell>
        <mxCell id="dB0mmWVFSh1fFRoZVbam-6" value="Productos" style="rounded=0;whiteSpace=wrap;html=1;" vertex="1" parent="1">
          <mxGeometry x="140" y="449.48" width="120" height="60" as="geometry" />
        </mxCell>
        <mxCell id="dB0mmWVFSh1fFRoZVbam-17" style="edgeStyle=none;html=1;exitX=0.5;exitY=0;exitDx=0;exitDy=0;entryX=0.5;entryY=1;entryDx=0;entryDy=0;startArrow=classic;startFill=1;fillColor=#1ba1e2;strokeColor=#006EAF;strokeWidth=3;flowAnimation=1;" edge="1" parent="1" source="dB0mmWVFSh1fFRoZVbam-6" target="dB0mmWVFSh1fFRoZVbam-5">
          <mxGeometry relative="1" as="geometry">
            <mxPoint x="80" y="390" as="sourcePoint" />
            <mxPoint x="80" y="170" as="targetPoint" />
          </mxGeometry>
        </mxCell>
        <mxCell id="dB0mmWVFSh1fFRoZVbam-18" value="Internal Communication" style="edgeLabel;html=1;align=center;verticalAlign=middle;resizable=0;points=[];" vertex="1" connectable="0" parent="dB0mmWVFSh1fFRoZVbam-17">
          <mxGeometry x="0.1091" relative="1" as="geometry">
            <mxPoint y="16" as="offset" />
          </mxGeometry>
        </mxCell>
        <mxCell id="dB0mmWVFSh1fFRoZVbam-19" value="ApiGateway" style="rounded=0;whiteSpace=wrap;html=1;" vertex="1" parent="1">
          <mxGeometry x="-410" y="316" width="120" height="60" as="geometry" />
        </mxCell>
        <mxCell id="dB0mmWVFSh1fFRoZVbam-23" style="edgeStyle=none;html=1;exitX=1;exitY=0.5;exitDx=0;exitDy=0;entryX=0;entryY=0.5;entryDx=0;entryDy=0;startArrow=none;startFill=0;endArrow=classic;endFill=1;strokeWidth=3;fillColor=#fff2cc;strokeColor=#d6b656;flowAnimation=1;" edge="1" parent="1" source="dB0mmWVFSh1fFRoZVbam-19" target="dB0mmWVFSh1fFRoZVbam-5">
          <mxGeometry relative="1" as="geometry">
            <mxPoint x="-160" y="451" as="sourcePoint" />
            <mxPoint x="90" y="290" as="targetPoint" />
          </mxGeometry>
        </mxCell>
        <mxCell id="dB0mmWVFSh1fFRoZVbam-67" value="/clientes" style="edgeLabel;html=1;align=center;verticalAlign=middle;resizable=0;points=[];" vertex="1" connectable="0" parent="dB0mmWVFSh1fFRoZVbam-23">
          <mxGeometry x="-0.1656" y="2" relative="1" as="geometry">
            <mxPoint as="offset" />
          </mxGeometry>
        </mxCell>
        <mxCell id="dB0mmWVFSh1fFRoZVbam-29" value="" style="aspect=fixed;html=1;points=[];align=center;image;fontSize=12;image=img/lib/mscae/Docker.svg;strokeColor=#000000;strokeWidth=0;fillColor=none;" vertex="1" parent="1">
          <mxGeometry x="236.88" y="240.00000000000006" width="23.12" height="18.96" as="geometry" />
        </mxCell>
        <mxCell id="dB0mmWVFSh1fFRoZVbam-30" value="" style="aspect=fixed;html=1;points=[];align=center;image;fontSize=12;image=img/lib/mscae/Docker.svg;strokeColor=#000000;strokeWidth=0;fillColor=none;" vertex="1" parent="1">
          <mxGeometry x="229.44" y="460" width="23.12" height="18.96" as="geometry" />
        </mxCell>
        <mxCell id="dB0mmWVFSh1fFRoZVbam-31" value="" style="aspect=fixed;html=1;points=[];align=center;image;fontSize=12;image=img/lib/mscae/Docker.svg;strokeColor=#000000;strokeWidth=0;fillColor=none;" vertex="1" parent="1">
          <mxGeometry x="-323.12" y="316" width="23.12" height="18.96" as="geometry" />
        </mxCell>
        <mxCell id="dB0mmWVFSh1fFRoZVbam-34" value="Private&lt;br&gt;Network" style="text;html=1;align=center;verticalAlign=middle;resizable=0;points=[];autosize=1;strokeColor=none;" vertex="1" parent="1">
          <mxGeometry x="-310" y="30" width="54" height="32" as="geometry" />
        </mxCell>
        <mxCell id="dB0mmWVFSh1fFRoZVbam-35" value="Public &lt;br&gt;Network" style="text;html=1;align=center;verticalAlign=middle;resizable=0;points=[];autosize=1;strokeColor=none;" vertex="1" parent="1">
          <mxGeometry x="-490" y="30" width="54" height="32" as="geometry" />
        </mxCell>
        <mxCell id="dB0mmWVFSh1fFRoZVbam-36" value="" style="outlineConnect=0;dashed=0;verticalLabelPosition=bottom;verticalAlign=top;align=center;html=1;shape=mxgraph.aws3.internet_3;fillColor=#D2D3D3;gradientColor=none;strokeColor=#B266FF;strokeWidth=2;" vertex="1" parent="1">
          <mxGeometry x="-640" y="307" width="79.5" height="54" as="geometry" />
        </mxCell>
        <mxCell id="dB0mmWVFSh1fFRoZVbam-37" style="edgeStyle=none;html=1;entryX=0;entryY=0.5;entryDx=0;entryDy=0;startArrow=none;startFill=0;endArrow=classic;endFill=1;strokeWidth=3;fillColor=#fff2cc;strokeColor=#d6b656;exitX=1;exitY=0.7;exitDx=0;exitDy=0;exitPerimeter=0;flowAnimation=1;" edge="1" parent="1" source="dB0mmWVFSh1fFRoZVbam-36" target="dB0mmWVFSh1fFRoZVbam-19">
          <mxGeometry relative="1" as="geometry">
            <mxPoint x="-436" y="341.5" as="targetPoint" />
            <mxPoint x="-538" y="342.5" as="sourcePoint" />
          </mxGeometry>
        </mxCell>
        <mxCell id="dB0mmWVFSh1fFRoZVbam-42" value="" style="shape=cylinder3;whiteSpace=wrap;html=1;boundedLbl=1;backgroundOutline=1;size=15;" vertex="1" parent="1">
          <mxGeometry x="710" y="140" width="64" height="60" as="geometry" />
        </mxCell>
        <mxCell id="dB0mmWVFSh1fFRoZVbam-44" value="" style="shape=image;verticalLabelPosition=bottom;labelBackgroundColor=#ffffff;verticalAlign=top;aspect=fixed;imageAspect=0;image=data:image/png,iVBORw0KGgoAAAANSUhEUgAAAMgAAADICAYAAACtWK6eAAAkv0lEQVR4nOydCXhTVdrHj03S5KZZ2mxNSko32kIr0FLAAiMtKIzbJ6hUHFxwgdECagEriyiLbMouZVFAKY6MCJ8fzowyoyNQR21dSkFpxYJATWnapEmTNMvNcsv3RFKnYu7N0pPcpD2/5+nz0JyT97yk+d9zzz3veV/m1atXAQKB8E4M3Q4gEJEMEggCQQESCAJBARIIAkEBEggCQQESCAJBARIIAkEBEggCQcXVq1fD+lNUVET3fzliKZTz+IfuyJxPtx+RzPLly8P6fUUzSIQgZDPAnskZb5RkS1ZOyxQPotsfxDWQQCKEGdmS23LF3AcAAPz37sr6ixRj3kC3TwgkkIhAijGZa8YNXNPjpZuWjB4wk0aXEB6QQCKAo3cPfi6ewxzR87WyEUkvK3mxbPq8QgAkEPqZkpEwZEwSf7mXJuWxe4dso8ElRA+QQGhm9diBLwMAON7acsXcJ0uHJY4Lv1eIbpBAaGT7hLQ7ciXce6j6rBk3cB1asNMHEghN5Igwwdw8eaWvv0E8h3lzxcT02eHzDNETJBCaqJiYtgQAIPGnb0mWeEORUpASeq8Q14MEQgPTMsVpxcnCsgDeIqiYkOZtIY8IMUggYUbIZrAqJqa9Q7YwJyNXwn0ILdjDDxJImFkzNnmmjMsaE8RbWTtuSX8nR4ShvZEwggQSRnJEmHBOnuLFXphIWT0uGQUzhhEkkDBy7N4hmwEAA3tjY+og8ZJCOU8KzysEFUggYeKZfHlxMp/9GARTgqNTBlcK2Qz0twsD6EMOA0peLFg6WrkeAABlw0/GZd3+bL7iXhi2ENQggYSBTUWpT8u4rJtg2izLV6xCC/bQgwQSYqZlilJKssQbYduN5zCH7JmUsQK2XcRvQQIJMUtHK1cDAGJDYXtMEn/hzBxpfihsI66BBBJCyvIVN+fJ4h4K4RCsV25OWRtC+/0eJJAQMVzKFW4uTq0M9TgyLuu27RPS7g/1OP0VJJAQsXTUgDIAQFo4xpqbJ99TpBSIwzFWfwMJJARMyxSnlmRLwrnjLVheqHwpjOP1G5BAICPFmGBTUYr71koYznGLk4WlZfmKIeEcsz+ABAKZ0uHyB5P57PE0DM1aPHrAwRQBG+2NQAQJBCJKXixrxZjkNXSNL+Oy8soLFOj0IUSQQCBy7N4hmwAAtJ78m5OnWIoW7PBAAoFE6bDEm3LF3Kfp9gMAoDhw26AddDvRV0ACgYB7YV4+Mmkd3X50k8xnT3+pUDmZbj/6AkggEKiYmP54qpAzgW4/ejJnuHy9kheSCJd+BRJILylSCpJLssSb6fbjemRcVv6motTn6fYj2kEC6SUVE9JeCveeh7+UZInXTMsUoVIKvQAJpBeUDksszJVwH6HbDwqYr6Jgxl6BBBIkUozJ3nFL+kGYoeyqTvsRAMA5WPbcpAo5JRvHp9wK02Z/AgkkSF6/NR12MKL6kX9eKF1RrVoM0eYvLChIemu4lJsA225/AAkkCArlPMnUQeKlMG3uPK1eV9Vsal9V0/yBqtP+d5i2AQDKpaMGPAfZZr8ACSRAhGzGDUenDK4EAAhg2dRYnWc21Kr3dP/+yD8v/Nn9Miz7bkqyJU+j2oeBgwQSIM/mK+6VcVl3QDTpWv/1lRlNJjve/UJVs6n18I/tr0IcA3hqH76NSikEBhJIAOSIMHZZvmIVTJsnVcZdW+vUDde//vznP+/SWJ31MMdy3x0uGT0gkp+6RRxIIAGwZ1LGingOMweiSdPKmmavgmsy2a3umQUAQEAcD9U+DBAkED+ZmSPNH5PEXwjT5o7TrbPdC3Oy9q116u9OqoxvwBwTAJB87N4hWyHb7LMggfiJJ3sIC5Y9jdX5z6dPXHrPV7+VNc3LAQBmWOOCa7UPnyodljgWps2+ChKIH2yfkDZdxmXdBtGkc9F/mvx6TFzVbNIebtQ9CXHsX0C1D/0DCcQHRUqBZG6efA9Mm9UtnZsqG7R1/vaf/mHjQY3V+TFMH+I5zPEVE9NnwbTZF0EC8cHyQqX7FocPy54BdzXM/uSngFOGemYcFyw/wLVgxo2o9iE1SCAUlOUrcouThU/BtLm1Tv1Sg95mD/R9lQ3a2uqWTthh9QJPNDKCBCQQElIEbM7i0QMOAgCYsGxqrM5j2+rU/xfs+2d/8tNyA+76AZY/4Frtw4fRgp0cJBASygsUT8q4rGEQTZqmfnDuEaOd6ArWQIPehm+tU/emhJs3UO1DCpBAvFCkFEjn5CmgRtUevaBbV9NqJt3z8Jdtder3NVbnR3C8+pVUVPvQO0ggXjhw26BdAAA5RJOXl32h2gLDkNFOXJ36wbmZ7n/CsNeNp/ahBKbNvgASyHW8VKi8I5nPvg+iSefcTy8+GMzCnAz3THT0gg72ScHu2odob6QHSCA9UPJib5gzXL4eps36duvbu75r+xKmTTdP/vviNgDARZg2ZVzWHaj24W9BAunBgdsGvSDjsoZCNGmad+ISZfRvkVJAuseSI8JiUwRsjrc2rc1ln/vpxRkAAAcMR7tBtQ9/CxKIh2mZosHFyUKoNf8ON+qeq2o2NZG1l+UrxhUrBaSPWHPEXG55gYI0PH3Xd21f1bdboRbpiecwc/ZMylgO02Y0gwTi4dWbU9YBABiw7F024p/NO35xL1m7e2bYXJz6BgDgKpWdGYOlz+eIMK+ziBvPDGXorb89GZPEf25mjjQPps1oBQkEALBxfMpdqULOVJg2N3zbskRrc5F++csLFA+7Jwlf5z3iOcyMPZMySB85VzWbmjfXtpT11t/rQLUPPfR7gQyXciULCpKgnrmo11l3US3M3ff47pnBX3tjkviLipSCDLL2V765UnnZiH8ajK9kyLis27dPSCuBaTMa6fcC2VKUuggAoIBoUnX7+z9QXtH3TMpYFM9hBpJAgVMxIY1UUFqbyz1jQU8XhGof9nOBTMsUDylOFpbCtLn1VMuyZrOD9MlSkVKQPiaJ/+uX+bTW4teR2lwJ92G3v2Ttu75r+7ZeZ4UdzChcXqiEHdoSVfRbgUgxZsx7d2W9AwCIg2VT1WmvXvf1lbep+lRMSCsHAGDdvxvsBOUivQfYpqKUN6QYeezk7e//4J4NfwrAZZ8UJwvnlOUrBsO0GU30W4EsGT1gFgAgH6JJ08KqpoepFubTMsWDcyXcmcEOkMxn/6F0uJz0YUKz2eFaUa16IVj7JPTr2of9UiCFch63bETSSpg2D//Yvv3IeR3p1dtT/fb1nrOHh4Cie+cMly+jat91pvWQqtMOe8GeX16g6JenD/udQIRsBtgzOQN2MKJq7TdXNlF1KB0uv5uk+q2/t1i/IOOyCg7dmfU4Wbt7wb6wqukxAIA+ELu+mJOnWJojwvrdgr3fCWRGtmRirhhuyYLNtS2PndFaO6j6+LryB0JJlnhLjgiLJ2s/cl6nOvxjO6VggyDp2L1DKiDbjHj6lUDcC/M14wZC3QA7rbEceu6zJspbmkN3Zs2UcVmjSJoDmkE8CComplHm6Hr+859fAwCcD8I2Kcl89gP9rfZhvxJIxcT0Z+M5zJsgmnSt/bqZclGcI8KEJVnibRRdgsqcWJwsfLZQziMtadBkspsXnLz8cKBrHF/0t9qH/UYgUzISMkuyxKth2jzcqFty5Lye8rHq6nHJC0JUoo2/Z3LGDveaioytdeqvTmss+2EO6ql9WA7TZiTTbwSyeuzAVQAALix7Gqvz1MKqyxup+hTKefFTB4lhx0n9Sq6Y+6cZ2ZIxVH3mV11+EQBggzluSZZ47bRMEWnoS1+iXwjkpULlrbkSLtS4op1nWhc3m6mPYuyZnLHdjzoivcp1VT4yiXLxX9VsajncqHumN2N4gbl0tLJfBDP2eYHkiLC4FWOS34YZyq7qtB9cVdP8CVWf0mGJN+WKuQ/BGpOMVCHnDl81CKd/2LhXY3V+BnPcPFnc/RvHp9wC02Yk0ucFUjExbRHkPY8rt7//w9O+OpWPTApbDNOCgqRdKQI25e3j2q+bF8NesPeH2od9WiDTMsXK4mQh1Np8O0+r1zbobZSbcBvHp0xMFXLu9NMkjC/toPICBenmoZvX6lqrq1s6d0AYqyfJS0cNgFoSItLoswIRshnMiolp73gJ7QgajdVZu6FWvY+qT4qAjS0oSNodgFkoV/U5eYrn3LeTVH1mf/LTEgPuugBjvG48tQ/77IK9zwpkzdjkGTIuy1toR7A413995cEmk50yfU95geIxAEAmxHH9JWXPpAzKBXuD3mY5eE4L9dw9AECwqSilz9Y+7JMCyRFhvBmDpVATD5xUGXdsrVP/6GNc7pw8RaB7BMHspHtlTBJ//pSMhGyqPi98qXpXY3UehzUmuLbDPmbJ6AEPw7QZKfRJgRy7d8ir8RxmOkSThnnHqdP3gGsnBV8AAKQGaBtmDUL26rEDF1F1MNoJYt7xSw8BACwQxwVlI5JWK3mxfW6Lvc8J5Jl8+bhkPhtmRaarO063zmrQ2yiDEadkJGTBrmEYDLkS7oxpmWLKpNtHzuvURy/oYJeZ7pO1D/ucQJaOVq6H+f/SWJ0fPX3i0v/66ue5ckfCoSL2e3dl7fW1Jlj2hWoDAKAZ5sC5Ym5p6bBEyp39aKNPCeTQnVl/lnFZf4Bo0rnoP00+T+hNyxTfmCvhPhjkGFCrRnkYVTpcPo2qQ4PeZltRrXoI9vjlI5PW96UFe58RSJFSMMBH1GzAVLd0vlLZoD1D1UeKMYH7ih0hs8evzBkuX+Yr6nZVTXNVfbv1IMxxU4Wc8RUT05+AaZNO+oxAthSlvgwAIM1AGCgG3HV26t/OveyrX+lw+X0AAJgh9FCQcVnDNhWl+szYMu/EpRUAgE6YY/el2od9QiBl+Yqb8mRxQSdD8MbWOvWLWpuLMhrRfYWGcFIQavhHT0qyxBt8HZOtajZdOtyoo3zyFQTCiglpfSJdUNQLJEXA5m0uTn0b8sL879vq1B/46repKPVJGZfV2xy2IRMIACCuYmKaz32Zeccv7jbgrs9hDuypfRj1C/aoF8irfxj4DOSda8PUD849avSRr8p9ZS7JEsM+9w2d4mThvEI5T0rVR2tzXX3hi59hZ2aM3XFL+jtSjBlRa7NAiWqBTMsUK0uyJVD3Ho5e0K2taTX7zAjiORMOI+kctJ10EuL2TM7YRXXyEFzLzPhFvc4aSAyZP6S9fmt6yA6MhYOoFYgnz9RbAAARRLMXPZWbKCmU88TFyUKfIe9+AnMn3Su5Yu59M7IlPuPSPDmFVTDHjvbah1ErkNLh8pJkPpvyoFCAOOZ+enGGr4W5m5+MuH5FtephjdUJ9b49FBhw1+mdp1tnfnTZ8JWvvs1mh33rqRZo6Yk8CI9OGbw/WmsfRqVAlLxYxooxyetg2qxvt1bu+q7N55cIeO7ZV9U0H5W//u3NK6tVdwEALsH0BRItW2pbHsneX1cw78SlA76ikLtZ9/WVt1Wd9i9gOiLjsu58Nl9xD0yb4SIqBXLgtkHrAQAwzyAY5p245HPPwxsra5o/TNz9TdaKatWjGqvz+yBMQN3JNuCuCztPtz6Ttu/U4IWfNb2ttbkCekrmFv/CqqZHYJeZLstXvByNC/aoE0jpsMQRsE8Juq+2OWJMFuybtTaXa1VNc+XId74bdrixfSYAoB2ue37RUd3SOT97f13uvBOXtjeZ7EFv/h05r7tY3279K0zn4jnMnKN3D34Jps1wEFUCcS/My0cmQS3T7CFnx8T0r1qfHPnxS4XKe6QYM6jPpdnsANM/PH/gxsrTA/fXa54BAFyG7+rvaDncqFs24XB91rhDZ7f6s4YiI0eEcTcXpT7R+uTIL3Ml3KfguvnLeZXyaKt9GFUCWTRqwIOpQs6kEJlnyLisSSvGJL/f9tSo88sLlSXBZhBs0Ntsj3/80/aBe2ozDje2L/Rx9iLYp1i26pbONTdWns6e/mHjmqpmU9CzVqGChx26M/OFszPz1GUjFHtlXFaoNvhYr9ycsiZEtkNC1AikSClIWlCQ9FqYhktfPib5vZ9nFzS8OTnj6RwR5iu3lVeazY6u6R+e33y4UUf1pQhqH+SkyvjGuENnlzXobeZg3i9kM8C0THH+8Wk5FV8+MFRdkiVZ7UcOr14j47Lu2D4hjTLSOJKIGoFUTEhbBnnPwx+GPJore+3szLwrh+7MXKrkxQa7yORB9gv0ZoOxbITiph8fzf/3e3dlnSpOFs4NUWpUUubmyffmiLBw/y2DIioEUjossSBXwqVMaxNieCVZkjU/zy5oOT4t59VpmeJAj/PyKdpCvZP+CykCNr9iQtrj+tJRX2wuSq2RcVl0Jn0TVkyMjmDGiBeIFGOydtySfjBCzluIipOF5e/dlXXh+0eGVxYqeAP8fB/VrUtId9JzRBj/i+k3Lr70xIiLc/Lk++I5zLGhHM9f3DNXNNQ+jHiBvHJzSikAIItuP67jhlwx95EvHxh66eLj+QdLhyeOp9opLlIKqGaQkDAzR5p3fFrO9rMz8y6NSeKvAwBEWrhHzBNDZVCPKISCiBfIxm9bDla3dG4DAOB0++IFVqqQ86cdE9Orfnw0//OyEYpx3jrJuKyQL367WV6ovKlp1oiP3/rjoLriZOE8AEDElU1TddqrVlarCoceOLOEbl98QV5TOEJo0Nvaxx06W1akFGyaM1z+55Is8ROQC/9DQcZljd1clPr5Szcp/3PwXPvuDbUt7zeZ7N2ipppBer2TniPCsFlDE6fPGCyZ5XlEG4kXPke9zvrBxm9btlc2aP9DtzP+EvEC6aaq2aSqaja9uLIaW79nUsYzY5L4zwMASOv00UU8h3nznDy5+6dpS23LivXfXPlLqB6fFip4nPkjFM+WZEkWR+Jn4eGqqtP+wcKqy4uPnNdTJt6LRKJGIN006G2WcYfOritSCt4oyRTPnDFYUhrPYQ6i2y8vpMwvSHrrsVzZC5Czy/9CcbLw7i8fGPpoBAvDUq+zvrvx25YdlQ3aOrqdCZZInIr9oqrZpJt34tLm7P11Q7bUtswCAFyh2ydveMRLtQ8S7FOs9AgVh0vVaX/r/n/8OHjogTOzolkcIJoF0o3W5nIt/KxpX9q+U9k7T7c+YcBdp+j2KUDCsg8SBjoON+q23vO3c7kpe089fuS8HmpSOrqIeoF002SyW+aduPRm9v66gi21LVMAAD/Q7VM/wVbd0rnpxsrTg6Z/2Dj/g586Gul2CCZ9RiDdaG0usPCzpr+l7Ts1fO7xi/ddNuJQM5mHgGidQdSHG3Uve6KIn/NVVCha6XMC6abJZHfuOtP2fvqbdbcsqLo8RmN1fkm3TySE/Ew6ZIzVLZ0v3Fh5OnP6h40vVTWb+sStFBlR9xQrGLaeUte8Va/5w4zBkuLygqR5qULOFJhFPfsJFw836nbvPNP6Vm9C66ONfiEQcK0uxtVdZ9pOuH/KRigyF48asFHGZd1Nt19RQOuW2pZV67+5sldrcznpdibc9BuB9GTrKfX5t+o1UyYNjM+fMzxxbnGy8EGYeX0DJBTZ3XuNAXd9f/Bc+84NtS3v9Ob4brTTZ9cgvjDaCXDkvK5u4pGGWWPf/T6lXmfdG+I0oNHCxS21LQ9k76/Lm3fi0u7+LA7QnwXSkxq1WTP0wJnZ9/+jcdBJlXGj+wJKt0/hxoC7anaebn0obd+p3IWfNR0KNBtKX6Vf3mKRceS87tKR87ryQgVv+Z5JGUtzxdznQn0ORWt10voUS2N1nnnnB+3z67+58rHWFpF3e7SCBOKFGrXZOvTAmWU5ImzbcyOT/vxorqwUAODv4aiAaNDbaNkHuWzEP9lQ27L94Ln2Y0Y7gZRBArrFoqBBb9M+/vFPawbuqU053Nhe1hduvTRW5+cLqi6PSn+zbvKuM21/R+KgBgnED5rNDmL6h+e33Vh5Wrm/XjMPYhhLuO7zuy4b8f+de/zihOz9deO3nlJ/G6Zxox4kkABo0Nssj3/8046Be2pzdp5unQEhE3rI1x8aq/MfC6ouD05/s27arjNtJ33VPUH8FiSQIGg2O8C8E5f+mrj7m/QV1aoHNVZnNd0+XYfjpMq4f+7xiyOz99f9z9ZT6vN0OxStIIH0Ak9O3oPy178du7JaNQkA8B3dPtXrrAfGvvt96sQjDY/tOtNWa7RHW6hXZIEEAomVNc3/Ttz9zfAV1ao7NVbnR37ePgWdR/c6zCdVxu33/6Mxe+iBMzNr1GY1JLv9HiQQiGhtLrCqpvkj+evf3jn3+MVRqk77pyEe0lWvs24b++73yolHGp45cl7Xp85iRAJIICFi15m2upS9p2597F8XxtbrfinWDzNtUftJlXHt/f9oTB164ExZjdoMtZYH4r+gjcIQU9mgrXb/TMsUpW8qSl2dzGff3yPUPtAFgu1wY/v6hVVNrzabHZGYJ6zPgWaQMHHkvP5iyt5TMx7714Vh9TrrDk8FJ3/3QVT76zVLbqw8rZz+4flVSBzhA80gYaayQdtQ2aCdlyPCVu6ZlPGsj+6uw43tzyysatrRbHag4EE6uHr1alh/ioqK6P4vI6KY5cuXh/X7im6xEAgKkEAQCAqQQBAICpBAEAgKkEAQCAqQQBAICpBAEAgKkEAQCAqQQBAICpBAEAgKkEAQCAqQQBAICpBAEAgKkEAQCAqQQBAICpBAEAgKkEAQCAqQQBAICpBAEAgKaEnawOFwuAkJCUtCOUZnZ+dHZrP5NzlzFQrFYgBAnLf+drv9M71e/0n377GxsUlisbg0kDEdDgfR1dXl8GQsaXU4HE1Op/MHh8Nh8ddGbGwsTywWLyJr7+zsfN9sNtf5ay8+Pv5WDMNIEwF0dXXVtrW1He35mkKhKAcACLz1t9vtn+v1+n91/y4SiWaw2ewhZOa1Wu2rLpfL7/+/x+fxGIZN8tbG4/GOAwBOBGKvN9AiEAaDEYdh2LJQjoHjeDsA4DcCwTBsAQBASvKW9QCAXwUSExOTFKiPGIZ5e9kJAPjSaDS+ZTAY3iEI6nocMTExPKpxcRy/AADwSyBxcXFykUh0yP09Julia2trG3b9ixiGPUtRMGgjAOBXgbDZ7BIMw6aS+SAUCtt0Ot1Of/ztJjY29g9knwGLxXKFUyDoFiv0sAAARUKhcH9KSsoVqVS6JCYmJqRl3cC1L5lQIpEcoxCHXa/X32exWC6E0g8ej1fOYrG8Xjmo3hYidwIGCSS8yPh8/trU1NRaDoejCOVAYrF4HYPByCNrt9lsrxgMhmOh9AFcu1tIlUqlpLeMJMSGyJ2A6csCieREa7mJiYnHOBwO2dW9V4jF4gcxDPszWTtBEJ9otdq1oRjbGxwOZxGHw0kL13gw6asCwW0221G6naCCwWAMl8lkf42JgfsnEAgEw923cz3y/17Pxebm5qkul8sOdWBqOAkJCeVhHA8atCzSCYKw2Wy2vcG+37MolJC1m83m2TiO97Y8GiU2m201juNne7zE8Kw3RBwOJzU2NnY0g8EYTXURYjKZkwUCwR0Gg+EjGD6xWKy4hISEtyj+rvb29vaZBEFYYYwXCBiGzYyLi9tosVguhnvs3kCLQHAcN6vV6tnBvFcgEBRiGDaLrJ0giL9rNJq/9MpBP8Bx/GRHRwdl/Q+hUJgTHx9/0D1bkPXh8XgzYQjEPRMpFIoDDAYjn6yP2WyeYzKZPu/tWEHCFYvFuy0Wy2Saxg+KqLrFiomJYSYkJGyh6GLVarXPh9ElSoxGY4Narb6FIIgGsj6xsbETY2JibujtWGKx+Gkmk3kvWbvdbt+n0Wje7O04vYHJZE4SCARe9zcilagSiFwuX8JgMArJ2s1m83NWq/VceL2ixuFw6Do6OuZSdJFgGJbZmzHi4uJy+Xz+qxRdGjUazTO9GQMWCQkJS+n2IRCiRiACgaCAw+G8SNbudDr/3d7evju8XvmH2WyuAgDoyNpjYmKyg7XN4XCSEhMT3bdoHJIu6paWltucTmfY1x3eYDAYxfHx8XfT7Ye/RI1AEhISNnsWwd7o0uv187u6uiKyBrjHL9KHBhiGiYO1nZiYWAEAGEjWrtfr5+E4filY+6FAJBLtCsdmKQyiQiAymWw+g8EYT9Zus9mWWiyWs+H1KmCgi1ehUCxiMBj3kLXbbLa1JpPpfdjjBsBXJK8nicXip8LsS1BEvEDi4uKG8Hi8DWTtBEFUazSaV8LrVVDIyBpwHO8I1JgnCHE9WTtBEB+p1eoXurro2y81GAwrAQBab218Pr+cwWBEfIWziBZITEyMezreQrHp5ero6JhPEJFdLJ/P52dRBP+5v8w/BmKPw+HIhELh6xRdrrS1tdF+hbbb7bbOzs5NJM0DxGLxyjC7FDARLRCJRDKbxWL9kawdx/FXTCYT2TQeMSQkJCynaO7AcdzvJ28xMTFMmUz2AYPBSKfodgNBEO2BeRkaDAZDBdkDCh6PtzguLi4l/F75T8QKhMvlZvN4vM1k7QRB1La2tkb8FUgqlT7JZDJnkLU7nc5PA5kBhULhIiaTSfqo20OSSCRaEIifocLpdFqMRiPZI+YYgUDg7VwQ5ZGAcBKxApFKpa9QhT13dHQs7OrqcobXK/+Ji4tLGzhw4EE+n0/56NlsNv81QNN+7ZnExcWVs9nskARDBopOpztIEMS33towDHuCzWanXveyIzye+SYiF0kymWwGg8GYQtbucDheM5lMVeH16rfweLx5HA7n+oNCLM/GXzYAYAjF2ukXCIKoNhqNfwuRi0K5XL5PpVLdQ+NC/dfvl9FoXCsSibw9UWPK5fI9KpVqUg8/I6YOfMQJhMPhKHk8HlUg449qtZr22wcWizWVxSLblvELXXt7+31dXV0hu51gMBhTeTze7SaTKeTnPkj49QMymUz/JxAIvmYymaOv78RgMG69zs+IuTOIuFsssVi8wT3zkrXr9fr5RKQ/tvKNUaPR3G+xWNSQ7NnIGhISElbFxMRQzmQh5Ndx3bODTqebRfblFwqFERkOH1ECEYlEd7PZ7AfI2l0u1/5wnIILMQ1tbW15ZrP5OAxjDofjoNlsJg3QZDAYIyUSCVUsWCj5zffLYrF873A4vK65WCzWBIFAMDFsnvlJxAjEfWsVHx+/j6ydIIgLarU6IgLugoEgiEaz2bzg559/vslisVyGZPacRqN5tr29fRdBEKfIOvF4vDUcDuf6hTAt6PX6V90fh7c2iUSyk8lkksWU0ULECEQikayiOgRlNBoXO53OzvB61WuuOByOfTqd7haVSjVYo9FscblcZki2DW1tbZMdDkd7V1cXYTQaV1H05UkkkpBmkSHhd2H8Vqu1HsfxCpL+2UKh8KHQu+U/EbFIF4vFf4yNjX2YrN3hcBymOabod9hstmU4jp++7uUugiBsDodDDwBoxnFcH6rxDQbDUxaL5dcASJPJ9HehUPgJg8Hwet7C/fny+fzdnZ2dXh+3hhOtVrs8OTl5OgBAfn0bj8crdzgcB+jx7PfQLhAWi5UgFAoPUvii1mq1j0VapC6O4zW+ThSGcOwNer3+UM/Xurq6utrb2x9PTEw8TxL6HiuVSt+2WCxDQ/nkzB+cTqfRbDa/xuPxfpc4gsFgZGEY9jg9nv0e2m+xJBLJaorcTe4r5SK73R5QZr6+jNPpPNba2rrYW5vFYmm22Ww7KN4+WCwWk2Y7CSd6vX43AKCVpJkqjCas0CoQgUAwBsMw0qA6l8v1scFgeDu8XkU2ZrP5UBfFzl9HR8d6t1bI2vl8/osMBiPQRG7QcblcHe6LH91++II2gcTGxookEslfKXxo1Wg0j9AZrh2N4Djebjabn6XoIlcoFNvC6BIpBoPhgNPp/IZuP6igTSBisfgFAABpJKfRaFyB43hbeL3qG2g0mn0EQXxN1h4bGztbIBD4CngMOe6Ln9FoJD3TEgnQIhA+nz8Kw7A5ZO0EQVR1dHTQmoEj2nFfYKjahULhathJ64LBbDYfJQiimm4/yAj7U6zY2FhMKpUepkgyABgMxpDU1NTG3oxjs9neVavVIS2xEMkYDIZjAoHgIyaTeYe3dhaLdUt8fPwDer3+3fB79188T9+eSExMPEv3mtgbYReIpy6Ir0MypMdTA4B007G/oNPpnkpMTPzePWF4a4+Pj3/NarUex3FcE37v/ovFYvnBZrMdxDAsojYJAR2KZTAYN4d7zP6KxWJRmc1mqtoc0kjJmWsymcKWTDsQIm5KQ8DFZDJtIUucAK4dWHoqLi6uV4nrYOCeRRwOxy66/bgeJJA+Do7jWoPBMJ+iC08sFu+PhAW7Wq12z2YhC88JBvo/FUTI8ZR++w9ZO5PJHCsQCP4UgqEDyuZIEISls7OTKvdy2Lnh6tXwhjjV1NQU6fV6GItwSgiCuIjjeG3P1+Li4u4GAHjN6EcQxDkcx7/v/j0mJiYBw7Bbyew7HI4qp9MJfXEbExPDwTDsfyjG/drpdDYFapfFYqXHxsYWUHRptVgsv4goLi7uLrJDawRB/Ijj+Hfdv3M4nLEMBsNrSiMcx08SBEF6e+eNmJgYPoZht5G1Z2Zm1mdmZpImA4dN2AWCQEQT6BYLgaAACQSBoAAJBIGgAAkEgaAACQSBoAAJBIGgAAkEgaDg/wMAAP//keBfbcwKCyYAAAAASUVORK5CYII=;" vertex="1" parent="1">
          <mxGeometry x="720.5" y="152.5" width="41" height="41" as="geometry" />
        </mxCell>
        <mxCell id="dB0mmWVFSh1fFRoZVbam-45" style="edgeStyle=orthogonalEdgeStyle;rounded=0;orthogonalLoop=1;jettySize=auto;html=1;exitX=1;exitY=0.5;exitDx=0;exitDy=0;entryX=0;entryY=0;entryDx=0;entryDy=37.5;entryPerimeter=0;flowAnimation=1;" edge="1" parent="1" source="dB0mmWVFSh1fFRoZVbam-3" target="dB0mmWVFSh1fFRoZVbam-42">
          <mxGeometry relative="1" as="geometry" />
        </mxCell>
        <mxCell id="dB0mmWVFSh1fFRoZVbam-46" value="" style="aspect=fixed;html=1;points=[];align=center;image;fontSize=12;image=img/lib/mscae/Docker.svg;strokeColor=#000000;strokeWidth=0;fillColor=none;" vertex="1" parent="1">
          <mxGeometry x="750.88" y="149.50000000000003" width="23.12" height="18.96" as="geometry" />
        </mxCell>
        <mxCell id="dB0mmWVFSh1fFRoZVbam-61" value="OauthServer" style="rounded=0;whiteSpace=wrap;html=1;" vertex="1" parent="1">
          <mxGeometry x="-110" y="451.85" width="120" height="55.26" as="geometry" />
        </mxCell>
        <mxCell id="dB0mmWVFSh1fFRoZVbam-62" value="" style="aspect=fixed;html=1;points=[];align=center;image;fontSize=12;image=img/lib/mscae/Docker.svg;strokeColor=#000000;strokeWidth=0;fillColor=none;" vertex="1" parent="1">
          <mxGeometry x="-13.120000000000005" y="451.85" width="23.12" height="18.96" as="geometry" />
        </mxCell>
        <mxCell id="dB0mmWVFSh1fFRoZVbam-63" style="edgeStyle=none;html=1;exitX=0.5;exitY=0;exitDx=0;exitDy=0;entryX=0.5;entryY=1;entryDx=0;entryDy=0;startArrow=classic;startFill=1;fillColor=#1ba1e2;strokeColor=#006EAF;strokeWidth=3;flowAnimation=1;" edge="1" parent="1" source="dB0mmWVFSh1fFRoZVbam-61" target="dB0mmWVFSh1fFRoZVbam-19">
          <mxGeometry relative="1" as="geometry">
            <mxPoint x="-323.12" y="500.96" as="sourcePoint" />
            <mxPoint x="-323.12" y="391.96" as="targetPoint" />
          </mxGeometry>
        </mxCell>
        <mxCell id="dB0mmWVFSh1fFRoZVbam-64" value="Internal Communication" style="edgeLabel;html=1;align=center;verticalAlign=middle;resizable=0;points=[];" vertex="1" connectable="0" parent="dB0mmWVFSh1fFRoZVbam-63">
          <mxGeometry x="0.1091" relative="1" as="geometry">
            <mxPoint y="16" as="offset" />
          </mxGeometry>
        </mxCell>
      </root>
    </mxGraphModel>
  </diagram>
</mxfile>
